<svg xmlns="http://www.w3.org/2000/svg" width="512" height="512" viewBox="0 0 4096 4096">
  <style>
    .theme-aware {
      fill: black;
    }
    @media (prefers-color-scheme: dark) {
      .theme-aware {
        fill: white;
      }
    }
  </style>
  <path class="theme-aware" d="M2384 3004h92v25l1 17 1 75 1 17v29l1 17v4c14.12-12.22 29.39-23.25 47-29.94 21.41-8.12 44.47-8.32 67-8.06 5.84.07 15.07 1.59 21 2.59 26.61 4.47 43.99 12.3 63.91 30.83 6.87 6.39 21.48 24.85 24.48 33.58 2.8 8.13 3.12 24.05 12.61 27l3.79 12c2.65 8.86 4.11 17.8 4.21 27l1 15v50l-1 17v183h-100v-75l-1-15v-89l-1-15v-54c-.03-17.96-9.41-42.48-24-53.45-8.82-6.62-28.06-9.75-39-9.53l-10 .94c-6.02.27-16.55.74-22 2.75-6.41 2.36-17 9.65-21.83 14.46-4.39 4.37-5.87 7.7-11.17 11.83l-1-3h-2l-3.55 9c-3.24 8.02-4.71 14.52-6.03 23-.69 4.5-2.6 9.16 1.58 12-2.14 16.22-3.97 32.64-4 49l-1 17v46l-1 15v52l-1 17v44h-92zm900 44h88v112h160v80h-43l-31-5h-48l-15 1h-23v45l1 17v58l1 15c.04 23.8-1.68 49.15 12.24 69.99 4.81 7.19 12.45 11.3 19.76 15.43 22.05 12.47 39.11 14.83 64 12.41 16.63-1.61 41.7-8.07 58-12.83l11.99 72c.22 9.85-.69 7.77-13.99 12.81-13.31 5.04-27.05 9.3-41 12.19-36.69 7.59-87.46 10.11-122-6.32-10.99-5.22-31.57-22.55-39.83-31.68-17.04-18.84-29.82-40.47-36.74-65-2.69-9.53-6.38-39.96-6.47-50v-12l-.96-12v-38l1-15v-87h-68v-76h68v-69zM820 3200c15.81-18.22 32.94-34.18 56-42.56 11.93-4.35 25.34-6.42 38-6.44l16-.96c14.59.57 29.63 3.24 43 9.27 30.05 13.56 53.92 40.67 64.66 71.69l6.26 19.17V3263l1.08 15v53l-1 17v200H944v-76l-1-15v-91l-1-15v-57c-.14-11.43-6.58-34.84-15.21-42.39-8.05-7.05-18.55-8.73-28.79-8.61-8.68.11-13.85 2.61-21 7.36-18.95 12.57-24.08 27.08-26.07 48.64l-.93 12v46l-1 17v88l-1 15v71h-92v-96l-1-15v-113l-1-15c-.03-15.63-3.08-31.81-9.78-46-1.8-3.82-5.6-11.7-8.6-14.36-5.97-5.32-18.99-5.99-26.71-5.73-3.64.13-7.37-.13-10.91.88-15.54 4.41-32.48 22.24-38.05 37.21-2.72 7.29-4.94 28.86-4.95 37v30l-1 17v53l-1 17v61l-1 15v37h-92v-388h92l4 24c31.94-22.41 58.41-29.45 97-29l17 1.76c14.49 3.71 26.87 12.41 36.91 23.24 5.45 5.88 9.91 12.66 13.09 20Zm312 64c15.21-38.24 24.41-63.41 60-88.28 17.07-11.93 32.01-16.55 52-21.07 23.73-5.36 40.23-4.69 64-4.65 11.88.02 29.36 3.22 41 6.13 22.18 5.54 49.89 16.7 67 32.04 5.61 5.03 12.16 13.47 16.31 19.83 22.15 34.02 20.69 68.43 20.69 107v44l-1 17v92h20v80l-41 1-12 .95h-19c-4.09 0-16.78-1.02-19.99-2.88-8.96-5.23-16.75-25.3-20.01-35.07-10.1 10.1-17.72 17.35-30 24.94-30.38 18.75-58.6 20.11-93 20.06l-12-.91c-26.28-1.92-53.48-7.94-75-23.99-25.25-18.82-35.85-46.53-38.09-77.1l-.91-12c-.05-33.8 6.38-69.86 34-92.67 9.86-8.15 36.43-20.37 49-25.01 29.88-11.05 61.16-16.95 93-17.32l19-1 15 1h43l-1.91-31c-.51-7.4.32-13.18-3.9-20-13.16-21.27-48-27.11-71.19-27l-11 .91c-14.41.99-18.69-.36-32 8.18-15.5 9.94-23.23 25.51-32 40.91l-40-5.44c-14.58-2.34-26.1-5.93-40-10.56Zm556.16-52 22.88-26.72c22.8-20.97 54.7-34.91 85.96-35.28 29.76-.34 61.17 5.25 87 20.93l12 8.84c10.09 7.7 24.9 16.13 23.32 31.23-.66 6.31-9.95 14.63-14.32 19-10.48 10.48-31.63 34.58-42 42l-18-10.42c-21.91-13.64-36.02-22.88-63-22.58-11.1.13-22.3 4.66-32 9.78-18.27 9.64-30.05 23.3-41.33 40.22-3.66 5.48-6.71 9.8-9.22 16-3.46 8.58-5.44 20.75-5.45 30v30l1 17v61l1 15v10l49 4.17 47 3.83v72h-248v-76l10-.68c7.55.53 13.63-.37 21-2.16l8-2.32c3.81-.88 13.87-.98 15.98-4.15 1.23-1.85 1.02-5.5 1.02-7.69v-202c-.01-3.18.44-6.92-2.31-9.15-2.06-1.66-13.44-4.5-16.69-5.43l-37-10.42v-68h144.16zM2232 3412l20 9.74c12.03 5.83 24.05 10.82 35 18.69 3.87 2.78 14.55 11.09 15.63 15.57.7 2.88-2.41 8.17-3.63 11-3.72 8.61-12 23.4-17.43 31-26.52 37.17-59.76 52.06-103.57 59.41l-32 3.59c-30.3.35-65.24-3.11-92-18.43-26.15-14.97-55.36-43.22-68.48-70.57l-9.58-31c-3.98-10.44-6.93-8.04-9.01-14.05-4.26-12.29-8.91-49.53-8.93-62.95v-17l.91-12c2.44-34.94 11.58-73.92 30.15-104 12.97-21 31.49-39.61 51.94-53.33 10.15-6.81 30.43-17.63 42-21.1 10.46-3.14 39.85-6.55 51-6.57 38.58-.06 79.84 5.37 113 26.7 10.25 6.59 18.77 15.45 27.02 24.3 7.45 7.98 20.93 25.89 24.59 36 1.41 3.88.18 5.54 1.39 11l-10 7.36-48 19.59c-5.13 1.92-19.58 6.81-24.61 4.48-2.55-1.18-4.38-5.97-5.65-8.43-3.07-5.94-6.26-11.07-10.83-16-7.92-8.54-16.74-15-27.91-18.64l-13-2.89c-4.12-1.35-4.95-3-8-4.48-3.17-1.54-8.47-1.94-12-1.99-16.83-.19-24.04 1.59-38 11.11-11.22 7.66-14.39 8.72-23.72 19.89-15.39 18.42-24.24 47.11-24.28 71v40l1.04 12v9c1.85 18.11 5.93 35.62 16.04 51 17.13 26.06 45.72 36.95 75.92 37 18.91.03 35.01-3.94 50-16.09 17.28-14.01 24.36-31.21 35-49.91Zm812-104-1.91-31c-.48-7.02 0-13.69-3.9-20-11.13-17.99-40.03-25.97-60.19-26h-22c-10.87.05-16.56 2.1-26 7.31-10.21 5.64-18.81 14.84-24.94 24.69-1.98 3.19-7.57 15.25-10.45 16.34-1.8.68-16.62-1.05-19.61-1.25-13.43-.92-31.18-1.28-44-4.83-11.31-3.14-16.97-3.99-16.97-17.26 0-8.02 4.08-16.04 7.75-23 8.57-16.25 17.09-29.01 30.22-42 15.56-15.37 41.84-28.8 63-34.51 12.34-3.33 26.28-4.69 39-5.58l12-.91c23.14-.04 42.35.81 65 6.63 21.1 5.42 41.42 14.24 58 28.66 19.99 17.38 35.67 39.57 41.34 65.71 4.37 20.17 2.66 53.33 2.66 75v33l-1 17v92h24v80l-43 1-15 1h-18c-4.09-.05-16.78-1.07-19.99-2.93-9.14-5.33-16.7-25.16-20.01-35.07-14.63 14.63-25.91 24.95-45 33.69-14.07 6.44-35.52 11.13-51 11.31h-29c-31.33-.05-75.39-13.06-96.54-37.09-19.78-22.48-24.5-53.08-24.46-81.91l1.04-12v-9c1.76-17.09 6.94-34.04 17.12-48 17.77-24.38 47.71-40.02 75.84-49.48 40.48-13.63 81.02-12.59 123-12.52l17 1zm-1695 64.14-19 2.02-54 5.69c-21.24 2.53-44.3 7.43-62 20.06-4.12 2.94-9.48 6.92-12.3 11.09-5.97 8.81-9.14 32.14-5.22 42 2.97 7.49 10.08 14.43 16.52 19.07 9.21 6.65 29.63 9.79 41 9.93 29.75.34 52.85-8.71 79-21.75 9.91-4.95 21.25-9.96 27.79-19.25 11.23-15.94 6.73-33.02 5.29-51-.25-3.15-.72-15.31-2.82-17.01-1.44-1.16-4.48-.98-6.26-.85zm1676 0-27 3.03-22 2.66c-28.64 2.87-57.99 5.69-82 23.33-13.36 9.81-16.18 27.31-16 42.84.08 6.1 1.15 12.21 5.22 16.99 2.61 3.05 5.56 5.12 8.78 7.43 3.22 2.32 6.41 4.72 10 6.45 8.6 4.12 25.37 6.72 35 7.09 4.57.18 5.89-.39 10-.79 26.07-2.53 42.75-9.3 66-20.92 10.42-5.21 21.81-10.27 28.48-20.25 10.35-15.5 5.99-32.71 4.6-50-.25-3.15-.72-15.31-2.82-17.01-1.44-1.16-4.48-.98-6.26-.85z"/>
  <path fill="#4abd83" d="m1960 1315 28.41-33c2.64-3.17 11.11-13.71 13.63-15.69 3.88-3.04 6.19-1.75 8.54-3.33 5.36-3.6 1.09-13.05 12.42-9.77l3.98 1.42c5.37 2.34 7.2 7.14 11.11 11.37l21.91 22c4.23 4.23 8.52 10.83 15 10 6.85 8.85 28.7 26.14 38 35.04l24 22.96 10.04 11 32.96 31.83c15.15 13.71 37.46 31.09 47 49.17h2l1-3c9.93 7.02 15.48 14.12 24 21.83l64 63.17 22 21.83 29 26.44c3.25 2.79 9.9 7.34 10.22 11.73.11 1.44-.71 4.55-1.13 6-3.61 12.3-13 18.15-22.09 26.15l-49 46.85c-6.4 6.4-20.6 21.42-27 26v-3l-36 36 3 1c-10.64 15.05-33.78 37.91-46.91 52L2095 1887l-11.04 12-22.96 23c-7.11 7.11-12.15 13.52-23 12.96-7.67-.4-13.41-5.84-19-10.55l-39-39.41c-3.19-3.19-13.59-13.11-14.38-17-.63-1.56-.29-2.56 0-4 3.87-10.15 14.86-21.48 22.38-29l34-34 43-40.71c8.49-7.23 8.47-3.65 12.7-7.52l13.3-14.73 15.72-13.33L2171 1660l52-47.17c3.73-3.37 16.03-13.93 15.42-18.83-.82-6.51-12.73-19.97-17.14-25l-24.28-24.01-37-36.16-51-46.84-17.01-17.99-42.99-41.91-24-21.26-38-36.83c-8.25-8.25-20.41-19.76-27-29m852-23h96v620h-96zm-448 548h316v76h-316z"/>
  <path fill="#fff" d="M1748 808h1868v308H1748zm0 619.96h16l12-.96 41-1 17-1h28l16-1h25l12-.96h16l16-1.08h14l12-1h15l12-.96h40c6.27.01 25.9 1.54 31 4.1 5.41 2.7 8.15 6.68 12.09 10.9l14.91 15 54 50.85 67 65.15c6.63 6.64 11.17 11.88 15.99 20 1.25 2.11 3.98 6.56 3.78 9-.22 2.65-2.87 5.08-4.61 6.91L2221 1615l-25 22.17-30 28.83-54 54-15 13.44c-2.15 1.81-5.55 5.32-8 6.46-1.89.51-7.61.1-10 0h-331zm464 .08h16l12 .96h53l17 1h53l17 1h55l15 1h34l13 .92 13-.92h62l17-1h72l15-1h49l17-1h43l12-.96h15V1740l-15-1-18-1-28-1-15-1-23-1.04h-12l-10-.96h-16l-13-1h-16l-16-1-59-1-17-1.04h-16l-12-.96-26-1-10-1h-12l-12-1.04h-11l-11-.96h-19l-17-1h-41l-15 1c-27.4.32-58.8 4.88-85 13.02l-23 8.4-18 7.58 21-25-2-1v-1l35-34v2l72-69.95c9.64-8.56 26.34-19.95 27.19-34.01.28-4.66-5.97-8.56-9.19-11.31l-27-24.73-60-59.99-11-10.02-27-26.08-15-13.91c-3.61 1.87-4.81-.22-7.2-3.02zm696-.04h708v312h-708zM480 2048h3136v312H480z"/>
  <path fill="#b22234" d="M1748 496h508l15-1h793l15-1h255l13 .96c68.24 2.97 125.82 27.82 177 72.89 17.82 15.68 31.43 30.52 44.81 50.15 8.24 12.1 15.09 24.85 21.45 38 8.11 16.79 14.18 34.06 19.16 52 2.67 9.59 6.53 24.24 6.58 34v66H1748zm0 620h1868v312h-708v-136h-96v136h-33l-17 1h-43l-17 1h-55l-17 1h-78l-15 1h-56l-17-1h-53l-17-1h-55l-15-1h-53l-17-1h-34c-10.41-.02-11.49-3.13-19-9.84l-19-16.88-59-58.24-37-33.08-10-9.5-7-3.79c-5.57-4.15-28.08-26.19-32.53-31.67-5.15-6.33-5.57-9.78-14.47-11.81-1.52-.36-3.25-.72-4.73 0-3.42 1.69-3.23 7.75-5.97 9.82-2.13 1.6-4.66.23-7.88 2.59-2.17 1.59-8.12 8.93-10.17 11.4l-19.12 23c-2.59 3.01-12.9 13.39-11.93 17 .6 2.24 5.97 7.17 7.8 9l20 20 38 36.72c9.9 8.71 35.6 31.31 43 40.28l-31-3-13-.92-11 .92h-27l-12 .96h-14l-16 1.08h-14l-12 .96h-14l-16 1h-31l-15 1h-22l-17 1.04h-16l-12 .96h-13l-17 1zm339 624c-1.51 3.89-6.67 12.06-10.17 14.24-2.62 1.62-3.9.34-7.83 3.05l-15 13.13-12 11.49-51 50.09c-7.61 7.61-15.46 15.92-21.3 25-2 3.11-5.69 8.25-3.89 12 1.3 2.72 15.94 16.68 19.18 20 10.86 11.14 26.36 29.06 38.01 38.53 6.9 5.61 15.47 11.34 24 5.84 6.88-4.44 16.83-15.2 23-21.37l38.09-39 25.91-26 50-50 28-29c5.49-5.56 7.88-9.97 15-13.74 32.06-16.98 69.16-24.68 105-28.22h9l12-1.04h80l17 1h11l20 1 19 1 10 .96h10l15 1.08h12l11 .96h20l15 1h24l15 1h18l15 1h15l16 1.04h14l12 .96 31 1 15 1 44 2v172h96v-172h708v308H480v-308zm593 100h-316v76h316zM480 2360h3136l-1 8c-4.64 2.78-3.94 6.02-4.75 11l-4 26c-4.08 24.71-18.58 57.95-30.56 80-35.47 65.3-98.41 109.63-168.69 130.72-20.62 6.19-41.55 9.87-63 11.37l-12 .91h-229l-15-1h-637l-15-1h-491l-15-1h-307l-19 1-10 .91c-36.12 2.53-72.93 10.25-106 25.4-26.01 11.91-35.3 20.13-58 34.27l-69 39.56-137 74.17-96 53.83-98 53.09-99 55.78-25 14.29c-12.6 6.94-17.9 10.68-33 10.7h-11c-15.28-.1-29.79-16.96-33.39-31-.71-2.74-.61-5.21-.61-8v-24l-1-17v-134l-1-15v-91c-.25-20.8-6.04-37.71-30-38h-18l-12-1.04h-9c-31.27-3.11-61.77-9.67-91-21.36-39.58-15.83-74.3-40.2-105-69.56l-8.83-8.08c-40.51-42.84-72.16-110.35-72.17-169.96"/>
  <path fill="#036" d="M480 1740v-506l-1-15V760l.91-12c4.17-59.66 25.86-108.85 63.67-155 8.68-10.6 15.26-18.45 25.42-27.91 14.86-13.84 31.6-25.87 49-36.29 26.47-15.85 67.84-32.75 99-32.8l19-.99 15 .99h997v1244zm1096-964-17-1-73-2-9-.83c-6.33-.61-11.77.29-16.58-5.3-3.18-3.69-8.93-23.2-10.56-28.87l-16.19-49c-1.85-5.66-6.23-21.65-10.3-25.19-2.7-2.34-8.87-3.49-12.37-3.81l-8.28 25-4.14 16-12.25 38c-2.33 7-6.85 24.95-12.54 28.93-8.25 5.76-28.72 4.96-38.79 5.07l-15 1-39 1-17 1c0 2.05-.18 5.91.57 7.71 1.15 2.77 5.05 5.53 7.43 7.28l18 12.72 35 24.87c6.66 4.71 14.23 8.98 18.24 16.42 3.22 5.98 3.83 15.29 3.76 22-.13 10.98-7.05 26.34-10.95 37-6.66 18.24-15.17 44.74-16.05 64 13.04-.04 18.08-6.7 28-14.35 2.73-2.1 9.3-6.51 11.04-8.97l2.54-4.51c2.35-3.07 9.92-7.91 13.42-10.12 3.62-2.28 5.71-4.3 10-3.05 8.6-7.27 27.38-18.71 39-17.82 9.56.74 21.44 11.5 29 17.4 18.06 14.07 45.26 40.31 67 45.42 0-13.83-3.17-20.12-6.86-33l-14.56-50c-3.81-13-9.31-26.59-3.63-40 4.23-9.97 13.54-14.93 22.05-20.67l28-19c12.7-8.47 26.56-17.78 31-33.33m-596 0-27-1-12-.96h-16L910 773h-14l-14-1h-5c-2.38 0-5.71.2-7.79-1.02-3.52-2.08-7.42-12.87-9.46-16.98-9.73-19.65-15.17-41.25-22.08-62-4.73-14.17-5.38-26.21-22.67-28l-6.48 18-20.1 54-9.3 24c-1.41 4.63.36 5.91-1.02 8.07-2.88 4.52-16.13 5.98-21.1 5.61l-20-.68-16 1-47 1-18 1c0 2.04-.18 5.92.57 7.71 1.03 2.46 4.36 4.84 6.43 6.49l17 12.51 45 35.01c5.92 4.93 14.58 11.1 17.86 18.28 4.3 9.4-.71 29.46-3.86 39-7.35 22.27-18.49 49.58-19 73 11.54-2.63 18.72-9.18 28-16.13l38-28.5c5.53-4.15 16.55-13.46 23-14.74 3.16-.94 5.89-.11 9 0 15.34 1.74 17.62 4.84 30 13.66L912 968c3.78-7.43 5.34-17.89 2.96-26l-5.54-15c-6.94-23.64-15.02-45.02-16.8-70-.73-10.26 15.86-20.47 23.38-25.72l38-26.61c11.94-8.05 22.58-13.68 26-28.67m141 220c-3.89 4.51-7.26 17.79-9.33 24l-16 47c-2.69 8.07-6.01 20.5-11.28 26.9-7.84 9.52-29.81 10.97-41.39 11.1l-15 1-52 1-20 1c.53 6.8 4.69 8.42 10 12l17 11.67 38 28.33c6.82 5.45 19.05 14.29 22.7 22 1.26 2.65 1.89 7.04 2.38 10 .54 3.26 1.02 5.64.83 9-.46 7.86-7.44 26.58-10.24 35-5.17 15.52-12.32 43.95-12.67 60 8.84-.94 17.9-9.75 25-15.13l44-32.87c5.44-3.58 18.78-11.04 25-11.82 14.47-1.8 23.31 8.6 34 16.69 13.34 10.1 50.26 36.51 64 43.13 0-9.6.51-16.42-1.45-26l-6.53-22-9.37-34c-.85-3.7-1.3-7.77-3.37-11-3.33-5.2-8.39-6.84-6.49-14 2.35-8.81 9.53-14.23 16.21-19.75 1.83-1.52 7.95-6.58 9.72-7.45 3.13-1.54 3.85.34 8.28-2.56l38-32.21c6.63-6.26 13.6-11.48 19-19.03l-18-1-47-1-12-.96h-15c-4.91-.05-17.35-.44-20.95-3.35-5.48-4.44-10.57-24.24-13.05-31.69-4.29-12.88-15.56-49.3-21.04-59-3.65-6.47-6.81-9.8-11.96-15m447 412-17-1-53-1-20-1c-8.14-.01-13.99-.37-19.66-7.04-4.7-5.53-7.4-17.81-9.68-24.96l-16.32-53c-2.86-8.97-4.16-15.63-9.27-24-1.29-2.12-4.23-6.8-7.02-6.8-2.91 0-4.86 4.56-5.82 6.8l-7.9 24-22.33 64c-1.6 4-6.22 16.96-9.39 18.98-1.81 1.15-4.53 1.01-6.61 1.02h-6l-15 1-66 2-17 1c0 2.43-.32 6.42.99 8.48 1.19 1.88 5.08 4.23 7.01 5.52l15 10.42 30 21.87c7.15 5.12 22.8 16.53 26.91 23.71 2.42 4.21 3.89 14.16 3.58 19-1.06 16.31-7.28 33.46-12.11 49l-11.38 50c2.67-.01 5.38.08 8-.53 7.64-1.76 20.58-11.07 27-15.84l40-28.91c5.47-3.8 20.76-14.11 27-14.19 6.01-.06 19.48 12.73 25 16.84 13.17 9.8 46.77 33.65 61 38.63v-13c-.06-11.83-3.58-20.09-6.98-31l-8.81-33c-1.5-7.08-2.76-15.79-3.03-23-.45-3.73-1.28-6.36 0-10 3.34-7.7 12.26-12.62 18.82-17.29l45-32c6.69-4.77 14.83-8.78 15-17.71zm-596 0-15-1-66-2c-5.91-.07-16.2-1.5-22-2.88-2.94-.71-6.18-1.29-8.37-3.55-3.69-3.81-8.07-18.89-9.96-24.57l-18.34-57-6-19c-1.23-3.5-2.1-5.89-6.33-5.89-5.1 0-6 3.92-7.6 7.89l-8.6 22-16.22 40-10.16 22c-1.82 4.19-7.08 16.88-10.63 18.98-1.93 1.13-4.62 1-6.79 1.02h-6l-15 1-66 2-17 1c0 2.04-.18 5.92.57 7.71 1.05 2.5 4.31 4.78 6.43 6.41l16 11.46 43 31.55c6.09 4.57 18.35 12.96 21.15 19.87 1.15 2.86.88 8.76.85 12-.14 11.42-5.9 24.19-9.66 35-6.45 18.6-14.28 44.35-14.34 64 23.96-5.46 45.52-26.93 65-41.63 8.81-6.64 20.25-17.27 32-17.19 8.09.06 16.67 6.91 23 11.4l37 26 28 19.58c3.33 1.63 9 .79 10.22-3.37.58-1.97-1.04-6.66-1.59-8.79l-5.48-20c-4.86-17.96-15.95-55.75-16.15-73-.02-2.22-.14-5.98.6-8 2.78-7.56 14.35-12.99 20.4-17.68l13-12.23c6.05-5.64 15.2-13.54 22-18.09v4c10.57-6.71 19.54-17.26 24-29"/>
  <path fill="#fff" d="M1412 660c2.91.66 8.32 2.02 10.61 3.84 4.34 3.44 8.78 19.34 10.72 25.16l18.34 56c1.69 5.07 5.53 19.38 8.72 22.61 4.61 4.67 14.33 5.36 20.61 5.39l21 1 44 1 15 1h15c-2.71 6.29-5.69 11.81-10.3 16.96-7.59 8.48-36.51 26.21-47.7 34.18-8.98 6.4-18.79 11.16-23.47 21.86-5.78 13.21-.05 27.14 3.61 40l14.28 49c3.32 11.34 7.54 22.05 7.58 34-28.15-9.83-43.83-28.5-67-45.87-9.49-7.12-19.46-17.64-32-17.09-14.18.62-24.96 11.09-37 16.96v-2c-4.84 3.16-18.21 11.3-21.69 14.75-2.57 2.54-2.19 4.26-4.62 6.95-1.93 2.14-8 6.23-10.69 8.31-9.14 7.07-14.89 13.87-27 13.99 5.65-31.51 8.06-41.62 19.42-72 5.51-14.72 9.85-22.93 7.58-39-.48-3.38-1.53-9.06-3.14-12-3.64-6.69-12.74-12.48-18.86-16.86l-40-28.42c-4.72-3.31-18.54-11.93-20.4-16.76-.72-1.86-.59-4.93-.6-6.96l67-2 22-1c6.44-.01 16.8-.99 21.79-5.42 5.46-4.85 9.73-22.15 12.21-29.58l12.96-40 1.96-9zm-596 4c3 .81 9.15 2.68 11.39 4.7 4.61 4.13 7.21 16.16 9.39 22.3l21 60c1.75 3.7 8.09 17.37 10.61 19.4 2.79 2.26 12.85 2.59 16.61 2.64h16l12 .96 43 1 12 .96h12c-1.05 3.18-2.26 7.27-3.99 10.04-4.54 7.26-17.74 15.4-25.01 20.34l-36 25.08c-8.07 5.71-23.69 15.38-22.83 26.58 1.74 22.59 9.17 44.52 15.85 66 5.34 17.14 11.88 25.41 3.98 44l-22-15.85-35-25.27c-12.58-9.26-22.76-18.5-39-18.87-13.82-.31-22.51 9.25-33 17.12l-30 22.52c-11.43 8.81-19.15 15.55-33 20.35 1.8-22.24 8.35-40.11 15.33-61 4.24-12.67 9.35-25.44 9.66-39 .36-16.12-8.44-21.43-19.99-30.8l-46-35.57c-4.6-3.41-19.75-13.57-21.98-17.72-1.22-2.28-1.01-5.38-1.02-7.91l45-1 15-1.16h44c9.87.04 11.46-1.77 20-4.84l-1.27-6 9.07-24 18.77-50zm304 333c9.64 5.9 13.96 15.89 17.81 26l16.86 50c2.44 7.32 6.82 26.43 13.35 29.99 4.2 2.29 13.15 2 17.98 2.01l17 1 46 1 15 1h15c-6.07 8.47-21.67 22.13-30 29.27l-26 21.5c-4.31 2.91-5.37 1.44-9 3.27-3.62 1.83-18.88 14.79-21.36 18.05-1.58 2.06-3.15 5.41-3.85 7.91-2.52 8.93 2.96 10.37 6.36 16 1.62 2.68 2.45 6.9 3.22 10l11.05 40c3.52 12 6.56 20.06 6.58 33v8c-6.62-2.11-16.91-9.6-23-13.67l-40-28.12c-8.45-6.57-20.88-18.48-32-18.15-6.87.2-20.12 7.47-26 11.28l-48 35.54c-7.09 5.42-13.96 12.42-23 14.12 3.7-28.07 7.03-42.1 16-69 4.79-14.38 9.05-22.39 6-38-.48-2.43-1.03-5.85-2.16-8-3.17-6.04-14.29-14.6-19.84-19l-41-30.81-17-11.53c-5.12-3.52-8.94-5.17-10-11.66h18l16-1h19l16-1h19c10.19-.12 31.41-3.21 38.9-10.21 6.56-6.15 10.83-22.06 13.77-30.79zm140 411 67-2 12-.96h16c3.73-.05 13.85-.39 16.61-2.64 2.96-2.42 8.26-17.08 9.99-21.4l20.4-59 8.21-25c.97-2.4 2.69-6.8 5.83-6.8 2.52 0 4.75 2.95 6.06 4.8 4.57 6.5 5.91 12.71 8.24 20l17.32 56c2.33 7.32 5.22 20.27 9.73 26 1.9 2.41 4.84 5.34 7.61 6.69 5.91 2.87 28.43 2.28 36 2.31l16 1 51 1v5c-.07 10.61-7 13.56-15 19.29l-45 31.99c-6.43 4.5-15.46 9.38-18.64 16.72-2.99 6.93.55 23.27 1.89 31l7.77 31 6.56 21c2.8 12.52 2.42 15.61 2.42 28-17.3-7.45-45.13-27.5-61-39.01-5.79-4.2-18.47-16.73-25-16.71-6.79.02-21.07 10.04-27 14.06l-41 29.54c-10.45 7.71-20.45 15.82-34 16.12l6.12-26 5.18-22 2.79-8 6.05-23c3.34-12.14 6.53-28.49 0-40-3.08-4.86-15.21-14.18-20.14-17.87l-40-29.25c-4.2-3.08-17.74-11.03-19.4-15.05-.73-1.76-.59-4.89-.6-6.83m-604 0 67-2 12-.96h16c3.76-.05 13.82-.38 16.61-2.64 2.61-2.11 9.64-17.41 11.64-21.4l24.55-58 9.4-24c1.45-3.55 2.29-6.9 6.8-6.9 4.56 0 5.07 3.26 6.14 6.9l5.86 18 18 56c2.13 6.38 5.71 20.08 9.64 24.87 5.17 6.32 23.47 6.95 31.36 7.14l14 .99 67 2c-4.33 9.72-14.28 23.41-24 28v-4l-18 15.17-18 16.45c-6.73 5.38-15.35 7.99-19.55 16.38-3.15 6.31.91 23.79 2.35 31l11.05 44 10.15 37c-2.32 1.3-5.23 3.24-8 2.91-3.25-.38-17.34-11.07-21-13.63l-44-31c-6.68-4.68-15.82-12.45-24-13.18-13.71-1.22-25.94 10.63-36 18.48-9.81 7.64-36.72 29.34-46 34.05-4.69 2.38-11.9 4.67-17 6.37 2.57-19.49 4.75-34.06 11-53 3.86-11.7 12.86-32.8 13-44v-8c-.01-1.88.05-4.23-.6-6-1.87-5.09-11.88-13.12-16.4-16.42l-46-34c-4.95-3.54-21.65-14.33-23.98-18.67-1.22-2.28-1.01-5.38-1.02-7.91"/>
</svg>
